<svg viewBox="0 0 4000 1440" xmlns="http://www.w3.org/2000/svg">
	<title>Police Nationale</title>
	<g class="text" style="fill: white;">
		<path d="M1082.87 763.927c-55.06 0-99.007-4.801-131.84-14.401-32.832-9.601-57.583-27.809-74.252-54.624-16.668-26.816-25.003-65.88-25.003-117.194 0-51.313 8.461-90.461 25.382-117.442 16.922-26.981 41.799-45.437 74.631-55.369C984.621 394.966 1028.31 390 1082.87 390c55.05 0 98.87 4.966 131.45 14.897 32.58 9.932 57.21 28.388 73.87 55.369 16.67 26.981 25.01 66.129 25.01 117.442 0 51.314-8.34 90.378-25.01 117.194-16.66 26.815-41.29 45.023-73.87 54.624-32.58 9.6-76.4 14.401-131.45 14.401zm-.05-76.046c27.87 0 49-2.809 63.38-8.427 14.38-5.618 24.67-16.247 30.86-31.886 6.2-15.639 9.29-38.946 9.29-69.921 0-32.19-3.09-56.105-9.29-71.744-6.19-15.639-16.48-26.192-30.86-31.658-14.38-5.466-35.51-8.2-63.38-8.2-27.43 0-48.34 2.734-62.72 8.2-14.38 5.466-24.888 16.095-31.524 31.886-6.637 15.791-9.956 39.63-9.956 71.516 0 31.278 3.098 54.661 9.292 70.149 6.194 15.487 16.478 26.04 30.858 31.658 14.38 5.618 35.73 8.427 64.05 8.427z"/>
		<path d="M1705.59 759.927h-216.54c-50.06 0-80.96-2.953-106.7-18.186-22.74-13.458-32.11-33.449-32.11-67.974V395.595h128.5v259.927c0 20.34 2.63 30.509 49.9 30.509h176.95v73.896zM2115.652 763.926c-48.826 0-81.901-2.979-117.34-16.883-29.138-11.422-50.4-27.312-66.938-54.624-15.75-27.313-26.776-65.053-26.776-116.2 0-49.163 7.088-87.896 23.626-115.208 16.537-27.312 38.588-46.182 69.3-56.61 31.502-10.429 63.79-14.402 119.703-14.402 35.438 0 69.302 1.49 100.802 4.966s58.276 7.946 81.114 12.415v65.052c-15.75-2.483-37.8-3.476-66.939-4.966-29.138-1.49-59.063-2.482-90.564-2.482-31.5 0-69.301 0-85.051 15.394-22.05 22.346-25.2 47.175-25.2 96.337 0 33.767 2.362 51.148 8.662 68.032 5.512 12.91 11.812 23.836 27.563 32.277 18.113 9.436 40.95 11.918 74.026 11.918 63.789 0 116.552-1.49 157.503-4.965v65.549c-46.463 9.435-107.89 14.4-183.49 14.4zM2476.122 761.95c-47.76 0-70.467-3.461-98.653-13.844-28.187-10.382-42.28-32.136-42.28-64.767V474.205c0-29.664 12.528-48.452 37.582-62.295 25.838-13.843 57.939-17.304 94.738-17.304 79.862 0 163.638 2.966 250.546 7.416v69.217H2501.96c-33.667 0-40.714 7.91-40.714 25.214v44.991l220.011 3.956v67.733l-220.01 4.944v34.609c0 30.653 13.31 32.63 48.543 32.63h208.266v68.229c-69.683 4.944-150.328 8.404-241.933 8.404zM1742.438 392.797h126.116v367.13h-126.116zM405 394.595h245.69c48.823 0 88.196 5.43 119.695 22.71 31.499 17.279 50.398 48.382 47.248 102.688-5.512 81.459-61.422 112.561-151.194 110.587-16.537-.494-108.67-7.406-133.87-10.368v139.715H405V394.595zm238.603 164.893c37.01 0 46.46-23.697 46.46-45.913-.787-34.559-18.899-48.382-44.098-48.382H532.57v94.295h111.033z"/>
		<path d="M2623.289 1049.97c-13.137.514-24.084-.514-33.154-5.649-9.07-4.878-13.762-15.662-13.762-30.04V898.997c0-13.351 2.502-24.135 11.26-30.04 8.758-5.906 21.268-8.474 34.092-7.96 33.466 1.54 96.333 4.365 96.333 4.365v19.256h-90.078c-17.828 0-22.52-.256-22.52 14.636v44.675l98.836 3.338v18.743l-98.835 2.311v38.257c0 8.73-.626 14.378 3.44 16.69 5.005 3.08 11.886 3.85 20.33 3.85h88.827v18.23c-38.47 2.825-71.311 3.595-94.77 4.622zM405.24 860.997h28.038l115.414 144.81v-144.81h28.69v188.973h-28.038L433.93 905.16v144.81h-28.69V860.997zM1714.519 859.457h28.038l115.414 144.81v-144.81h28.69v188.973h-28.038l-115.414-144.81v144.81h-28.69V859.457zM779.065 860.997h30.651l80.07 188.973h-32.841l-19.08-50.838h-86.637l-21.58 50.838h-32.529l81.946-188.973zm49.418 116.568l-33.467-82.676-36.594 82.676h70.06zM2088.13 860.997h30.651l80.07 188.973h-32.841l-19.08-50.838h-86.637l-21.58 50.838h-32.529l81.946-188.973zm49.418 116.568l-33.467-82.676-36.594 82.676h70.06zM1037.702 884.362h-66.308v-23.365h162.015v23.365h-66.933v165.608h-28.774V884.362zM1254.153 860.997h29.088v188.973h-29.088zM1498.738 1051.51c-21.824 0-39.22-2.31-51.556-6.932-12.651-4.878-22.14-14.122-28.466-27.73-6.642-13.608-9.805-33.635-9.805-60.594 0-26.703 3.48-46.987 10.121-61.108 6.643-13.865 16.131-23.365 28.783-28.244 12.652-4.878 29.731-7.446 50.923-7.446 21.824 0 39.22 2.311 51.872 7.19 12.651 4.878 22.14 14.378 28.466 28.243 6.326 14.121 9.488 34.405 9.488 61.365s-3.162 46.986-9.488 60.594c-6.642 13.608-16.131 22.852-28.783 27.73-12.335 4.622-29.731 6.933-51.555 6.933zm0-24.135c16.763 0 28.782-2.054 37.638-5.648 9.173-3.852 12.652-8.216 16.764-19.257 4.428-10.784 6.326-24.392 6.326-46.216 0-22.852-1.898-34.663-6.326-45.96-4.112-11.04-6.642-18.486-15.498-22.08-9.173-3.596-22.14-5.65-38.904-5.65-16.131 0-28.466 2.054-37.639 5.65-9.172 3.594-12.019 11.04-16.447 22.337-4.428 11.297-6.642 23.365-6.642 45.703 0 22.08.949 33.635 4.744 44.419 4.112 10.783 7.591 17.202 16.764 21.054 8.856 3.594 21.824 5.648 39.22 5.648zM2361.743 1049.97c-14.7 0-29.087-2.824-37.22-8.73-8.131-5.648-9.07-15.405-9.07-29.27V860.997h28.15v148.149c0 8.473.312 12.067 5.004 15.405 5.004 3.081 13.449 2.568 21.581 2.568h84.448v22.851h-92.893z"/>
	</g>
	<g class="graph">
		<path fill="#173f87" d="M3187 403h-225v97.998c.13 98.127-48.01 193.998-99 249.002 150.61-72.832 261.86-190.328 324-347z"/>
		<path fill="#fff" d="M3370 403h-183c-26.52 66.868-61.99 126.599-105.65 178.78-3.71 80.07-22.88 172.39-114.62 284.33l-.73.89c268.43-126.319 375.57-365.892 404-464z"/>
		<path fill="#e0e0e0" d="M3421 403h-51c-28.43 98.108-135.57 337.681-404 464 206.47-79.736 372.1-195.853 455-464z"/>
		<path fill="#e00814" d="M3606 403h-185c-40.98 132.545-102.17 227.944-178.51 300.164-14.33 96.097-50.27 206.38-138.49 305.836 224.47-103.736 430.1-319.853 502-606z"/>
	</g>
	<g class="outline">
		<path fill="#fff" d="M3567.62,431.28a810.93,810.93,0,0,1-62.16,157.89,866.88,866.88,0,0,1-113.8,167.23,898.16,898.16,0,0,1-143.47,133.18q-22.12,16.44-45,31.27c29.65-52.93,42.18-99.05,55.7-162.81l19.24-90.75-70.3,60.53c-54.23,46.7-121.85,84-190.4,115.19,65.24-91.36,98.06-163.77,102-223.66l6.32-96-61.6,73.86c-32.5,39-73.56,61.94-120.69,83.55a394.75,394.75,0,0,0,28.75-81.18c13.95-57,14.68-92.62,15.32-124.08l0-1.9c.11-5.26.47-24.49.73-42.35h579.28M3607.7,400H2957.26c.2,9.64-.61,56.44-1,73-.64,31-1.07,64.45-14.47,119.18-8.22,33.58-26.85,95.6-83.08,161,87.51-42.32,170.15-64.75,229.47-135.88-5.34,81.1-74.19,186.92-168,300,106.62-41.17,222.55-92.09,308.05-165.71C3207.85,848,3191.07,901.26,3100.68,1012c227.64-100.46,442.44-322.58,507-612.06Z"/>
	</g>
</svg>